<mxfile host="app.diagrams.net" agent="Mozilla/5.0 (Windows NT 10.0; Win64; x64) AppleWebKit/537.36 (KHTML, like Gecko) Chrome/136.0.0.0 Safari/537.36 Edg/136.0.0.0" version="27.0.3">
  <diagram name="Page-1" id="lkHVOymzlb00yTyTxr3h">
    <mxGraphModel dx="1042" dy="616" grid="1" gridSize="10" guides="1" tooltips="1" connect="1" arrows="1" fold="1" page="1" pageScale="1" pageWidth="1100" pageHeight="850" math="0" shadow="0">
      <root>
        <mxCell id="0" />
        <mxCell id="1" parent="0" />
        <mxCell id="WmRT3mpqogxM2vdh_Q9--8" value="" style="rounded=0;whiteSpace=wrap;html=1;dashed=1;" parent="1" vertex="1">
          <mxGeometry x="340" y="210" width="200" height="380" as="geometry" />
        </mxCell>
        <mxCell id="V8LJo-HUQhEcklU6w-Ak-2" value="Input" style="rounded=0;whiteSpace=wrap;html=1;" parent="1" vertex="1">
          <mxGeometry x="380" y="110" width="120" height="60" as="geometry" />
        </mxCell>
        <mxCell id="V8LJo-HUQhEcklU6w-Ak-4" value="Modules" style="rounded=0;whiteSpace=wrap;html=1;" parent="1" vertex="1">
          <mxGeometry x="680" y="110" width="120" height="60" as="geometry" />
        </mxCell>
        <mxCell id="V8LJo-HUQhEcklU6w-Ak-5" value="Output" style="rounded=0;whiteSpace=wrap;html=1;" parent="1" vertex="1">
          <mxGeometry x="950" y="110" width="120" height="60" as="geometry" />
        </mxCell>
        <mxCell id="V8LJo-HUQhEcklU6w-Ak-18" value="Seat Booking Summary" style="rounded=0;whiteSpace=wrap;html=1;" parent="1" vertex="1">
          <mxGeometry x="380" y="230" width="120" height="60" as="geometry" />
        </mxCell>
        <mxCell id="V8LJo-HUQhEcklU6w-Ak-21" value="Restaurant Details" style="rounded=0;whiteSpace=wrap;html=1;" parent="1" vertex="1">
          <mxGeometry x="380" y="415" width="120" height="60" as="geometry" />
        </mxCell>
        <mxCell id="V8LJo-HUQhEcklU6w-Ak-22" value="&amp;nbsp;Cart Summary" style="rounded=0;whiteSpace=wrap;html=1;" parent="1" vertex="1">
          <mxGeometry x="380" y="320" width="120" height="60" as="geometry" />
        </mxCell>
        <mxCell id="V8LJo-HUQhEcklU6w-Ak-30" value="" style="rounded=0;whiteSpace=wrap;html=1;" parent="1" vertex="1">
          <mxGeometry x="625" y="200" width="230" height="390" as="geometry" />
        </mxCell>
        <mxCell id="V8LJo-HUQhEcklU6w-Ak-31" value="&amp;nbsp;Booking Logs and Monitoring" style="rounded=0;whiteSpace=wrap;html=1;" parent="1" vertex="1">
          <mxGeometry x="680" y="370" width="120" height="60" as="geometry" />
        </mxCell>
        <mxCell id="V8LJo-HUQhEcklU6w-Ak-32" value="&amp;nbsp;E-mail and Messaging confirmation" style="rounded=0;whiteSpace=wrap;html=1;" parent="1" vertex="1">
          <mxGeometry x="665" y="260" width="140" height="60" as="geometry" />
        </mxCell>
        <mxCell id="V8LJo-HUQhEcklU6w-Ak-33" value="&amp;nbsp;Administration Dashboard" style="rounded=0;whiteSpace=wrap;html=1;" parent="1" vertex="1">
          <mxGeometry x="680" y="500" width="120" height="60" as="geometry" />
        </mxCell>
        <mxCell id="LU3TO-iWrrvG3ch4x9_D-3" style="edgeStyle=orthogonalEdgeStyle;rounded=0;orthogonalLoop=1;jettySize=auto;html=1;exitX=0.5;exitY=1;exitDx=0;exitDy=0;" edge="1" parent="1" source="V8LJo-HUQhEcklU6w-Ak-34">
          <mxGeometry relative="1" as="geometry">
            <mxPoint x="1010" y="580" as="targetPoint" />
          </mxGeometry>
        </mxCell>
        <mxCell id="V8LJo-HUQhEcklU6w-Ak-34" value="" style="rounded=0;whiteSpace=wrap;html=1;dashed=1;" parent="1" vertex="1">
          <mxGeometry x="930" y="217.65" width="190" height="362.35" as="geometry" />
        </mxCell>
        <mxCell id="WmRT3mpqogxM2vdh_Q9--16" value="" style="shape=flexArrow;endArrow=classic;html=1;rounded=0;fontSize=12;startSize=8;endSize=8;curved=1;" parent="1" edge="1">
          <mxGeometry width="50" height="50" relative="1" as="geometry">
            <mxPoint x="860" y="355.1" as="sourcePoint" />
            <mxPoint x="920" y="355.1" as="targetPoint" />
          </mxGeometry>
        </mxCell>
        <mxCell id="WmRT3mpqogxM2vdh_Q9--18" value="" style="shape=flexArrow;endArrow=classic;html=1;rounded=0;fontSize=12;startSize=8;endSize=8;curved=1;" parent="1" edge="1">
          <mxGeometry width="50" height="50" relative="1" as="geometry">
            <mxPoint x="550" y="359.40000000000003" as="sourcePoint" />
            <mxPoint x="610" y="359.40000000000003" as="targetPoint" />
          </mxGeometry>
        </mxCell>
        <mxCell id="cxeMdDQb4AX548BkrPkL-2" value="&amp;nbsp;Messaging and Confirmation&amp;nbsp;&lt;div&gt;System&lt;/div&gt;" style="text;html=1;align=center;verticalAlign=middle;resizable=0;points=[];autosize=1;strokeColor=none;fillColor=none;" parent="1" vertex="1">
          <mxGeometry x="650" y="210" width="180" height="40" as="geometry" />
        </mxCell>
        <mxCell id="cxeMdDQb4AX548BkrPkL-3" value="&amp;nbsp;Generatd Bill" style="rounded=0;whiteSpace=wrap;html=1;" parent="1" vertex="1">
          <mxGeometry x="965" y="240" width="120" height="60" as="geometry" />
        </mxCell>
        <mxCell id="LU3TO-iWrrvG3ch4x9_D-1" value="&amp;nbsp;Customer Details" style="rounded=0;whiteSpace=wrap;html=1;" vertex="1" parent="1">
          <mxGeometry x="380" y="500" width="120" height="60" as="geometry" />
        </mxCell>
        <mxCell id="LU3TO-iWrrvG3ch4x9_D-4" value="&amp;nbsp;Confirmation Email" style="rounded=0;whiteSpace=wrap;html=1;" vertex="1" parent="1">
          <mxGeometry x="965" y="340" width="120" height="60" as="geometry" />
        </mxCell>
        <mxCell id="LU3TO-iWrrvG3ch4x9_D-5" value="&amp;nbsp;Centralised View&lt;div&gt;(only for Admin)&lt;/div&gt;" style="rounded=0;whiteSpace=wrap;html=1;" vertex="1" parent="1">
          <mxGeometry x="965" y="450" width="120" height="60" as="geometry" />
        </mxCell>
      </root>
    </mxGraphModel>
  </diagram>
</mxfile>
